<?xml version="1.0" encoding="utf-8"?>
<!-- Generator: Adobe Illustrator 25.0.1, SVG Export Plug-In . SVG Version: 6.00 Build 0)  -->
<svg version="1.1" id="Layer_1" xmlns="http://www.w3.org/2000/svg" xmlns:xlink="http://www.w3.org/1999/xlink" x="0px" y="0px"
	 viewBox="0 0 329.9 77.1" style="enable-background:new 0 0 329.9 77.1;" xml:space="preserve">
<style type="text/css">
	.st0{fill:#255441;}
	.st1{fill:#78A249;}
	.st2{enable-background:new    ;}
	.st3{fill:#2D2A26;}
</style>
<g>
	<path class="st0" d="M184.5,51.5c-4.4,7.1-12.3,11.9-21.3,11.9c-13.8,0-25-11.2-25-25s11.2-25,25-25c8.4,0,15.8,4.1,20.4,10.5
		l-9.3,6.4c-2.5-3.4-6.5-5.6-11.1-5.6c-7.6,0-13.8,6.2-13.8,13.8s6.2,13.8,13.8,13.8c5,0,9.5-2.7,11.9-6.8L184.5,51.5z"/>
	<path class="st0" d="M294.3,52.1c-7.6,0-13.8-6.2-13.8-13.8s6.2-13.8,13.8-13.8c7.6,0,13.8,6.2,13.8,13.8
		C308,46,301.9,52.1,294.3,52.1 M294.3,13.3c-13.8,0-25,11.2-25,25s11.2,25,25,25s25-11.2,25-25S308.1,13.3,294.3,13.3"/>
	<polygon class="st0" points="266.6,25.1 266.6,14 244.2,14 231.2,14 231.2,25.1 231.2,33.6 231.2,44.5 231.2,62.8 244,62.8 
		244,44.5 261.7,44.5 261.7,33.6 244,33.6 244,25.1 	"/>
	<path class="st0" d="M223.6,52.3v10.5H190c-0.3-1.9-0.5-3.6-0.5-5.2c0-17.9,21-21.1,21-28.1c0-3.4-2.7-4.8-5.2-4.8
		c-4.6,0-7.2,5.2-7.2,5.2l-8.8-5.9c0,0,4.5-10.5,17.1-10.5c8,0,16.6,4.5,16.6,14.9c0,14.9-19,18-19.9,24L223.6,52.3L223.6,52.3z"/>
	<path class="st1" d="M89.6,31.5c2.4,2.4,2.4,6.2,0,8.6l-7,7c-5.2,5.2-13.6,5.2-18.8,0L75,35.9L51.2,12c-2.4-2.4-6.2-2.4-8.6,0
		l-25,25c-2.4,2.4-2.4,6.2,0,8.6l31.5,31.5H35.6c-3.4,0-6.6-1.3-9-3.7L3.9,50.7c-5.2-5.2-5.2-13.6,0-18.8L34,1.8
		C35.1,0.6,36.7,0,38.3,0h17.3c1.6,0,3.2,0.6,4.3,1.8L89.6,31.5z"/>
	<path class="st1" d="M83.6,77.1c1.6,0,3.2-0.6,4.3-1.8l30.1-30c5.2-5.2,5.2-13.6,0-18.8L95.3,3.7c-2.4-2.4-5.6-3.7-9-3.7H72.8
		l31.5,31.5c2.4,2.4,2.4,6.2,0,8.6l-25,25c-2.4,2.4-6.2,2.4-8.6,0L46.8,41.3L58.1,30c-5.2-5.2-13.6-5.2-18.8,0l-1.8,1.8L32.3,37
		c-2.4,2.4-2.4,6.2,0,8.6l5.1,5.1L62,75.3c1.1,1.1,2.7,1.8,4.3,1.8H83.6L83.6,77.1z"/>
</g>
<g class="st2">
	<path class="st3" d="M319.6,20.5c-0.4,0-0.7,0-1.1-0.1c-0.4-0.1-0.7-0.2-0.9-0.4l0.1-0.9c0.3,0.2,0.6,0.3,0.9,0.4s0.7,0.1,1,0.1
		c0.4,0,0.7-0.1,1-0.2c0.2-0.2,0.3-0.4,0.3-0.7c0-0.2-0.1-0.4-0.3-0.6c-0.2-0.1-0.5-0.3-1-0.5c-0.7-0.2-1.1-0.5-1.4-0.7
		c-0.3-0.3-0.4-0.7-0.4-1.1c0-0.3,0.1-0.6,0.3-0.9c0.2-0.3,0.4-0.5,0.7-0.6s0.7-0.2,1.1-0.2c0.3,0,0.6,0,0.9,0.1
		c0.3,0.1,0.6,0.2,0.8,0.3l-0.2,0.9c-0.2-0.1-0.5-0.2-0.8-0.3s-0.6-0.1-0.8-0.1c-0.4,0-0.7,0.1-0.9,0.2s-0.3,0.3-0.3,0.6
		c0,0.2,0,0.3,0.1,0.4c0.1,0.1,0.2,0.2,0.4,0.3c0.2,0.1,0.4,0.2,0.7,0.3c0.5,0.2,0.9,0.3,1.2,0.5s0.5,0.4,0.6,0.6
		c0.1,0.2,0.2,0.5,0.2,0.8c0,0.3-0.1,0.7-0.3,0.9s-0.4,0.5-0.8,0.6S320.1,20.5,319.6,20.5z"/>
	<path class="st3" d="M323.3,14.3h1l2.2,4.1l2.1-4.1h1l0.3,6.1h-1l-0.2-4.6l-1.9,3.6H326l-1.9-3.5l-0.2,4.5H323L323.3,14.3z"/>
</g>
</svg>
